<?xml version="1.0" encoding="UTF-8" standalone="no"?>
<!DOCTYPE svg PUBLIC "-//W3C//DTD SVG 1.1//EN" "http://www.w3.org/Graphics/SVG/1.1/DTD/svg11.dtd">
<svg width="100%" height="100%" viewBox="0 0 800 500" version="1.1" xmlns="http://www.w3.org/2000/svg" xmlns:xlink="http://www.w3.org/1999/xlink" xml:space="preserve" xmlns:serif="http://www.serif.com/" style="fill-rule:evenodd;clip-rule:evenodd;stroke-linecap:square;stroke-miterlimit:1.5;">
    <g transform="matrix(1,0,0,1,8.52864,23.7145)">
        <g transform="matrix(0.898426,0,0,1.09504,-209.191,-208.281)">
            <rect x="315.911" y="237.052" width="516.5" height="180" style="fill:rgb(255,27,226);fill-opacity:0.08;stroke:rgb(255,27,226);stroke-width:1px;"/>
        </g>
        <g transform="matrix(1,0,0,1,-127.322,-60.2964)">
            <path d="M281.984,143.485L281.984,111.597" style="fill:none;stroke:rgb(255,27,226);stroke-width:1px;stroke-linecap:round;stroke-linejoin:round;stroke-dasharray:5,5,0,0;stroke-dashoffset:4;"/>
        </g>
        <g transform="matrix(1,0,0,1,-81.3557,-39.5954)">
            <g transform="matrix(12,0,0,12,242.911,143.647)">
                <path d="M0.258,-0.89C0.323,-0.89 0.375,-0.869 0.414,-0.828C0.45,-0.789 0.468,-0.739 0.468,-0.678L0.468,-0.548C0.468,-0.49 0.448,-0.439 0.407,-0.398C0.366,-0.356 0.316,-0.335 0.258,-0.335L0.18,-0.335L0.18,0L0.046,0L0.046,-0.89L0.258,-0.89ZM0.338,-0.675C0.338,-0.699 0.331,-0.717 0.317,-0.732C0.303,-0.746 0.285,-0.753 0.261,-0.753L0.18,-0.753L0.18,-0.468L0.261,-0.468C0.283,-0.468 0.301,-0.476 0.316,-0.491C0.331,-0.506 0.338,-0.524 0.338,-0.545L0.338,-0.675Z" style="fill:rgb(0,135,255);fill-rule:nonzero;"/>
            </g>
            <g transform="matrix(12,0,0,12,248.229,143.647)">
                <path d="M0.219,-0.205L0.186,0L0.046,0L0.197,-0.89L0.382,-0.89L0.531,0L0.39,0L0.359,-0.205L0.219,-0.205ZM0.289,-0.686L0.239,-0.335L0.339,-0.335L0.289,-0.686Z" style="fill:rgb(0,135,255);fill-rule:nonzero;"/>
            </g>
            <g transform="matrix(12,0,0,12,255.158,143.647)">
                <path d="M0.259,0.011C0.2,0.011 0.15,-0.009 0.108,-0.051C0.067,-0.093 0.046,-0.143 0.046,-0.201L0.046,-0.687C0.046,-0.746 0.067,-0.796 0.109,-0.838C0.15,-0.879 0.201,-0.9 0.259,-0.9C0.318,-0.9 0.369,-0.879 0.41,-0.837C0.451,-0.796 0.472,-0.746 0.472,-0.687L0.472,-0.585L0.332,-0.585L0.332,-0.69C0.332,-0.711 0.325,-0.729 0.31,-0.744C0.295,-0.759 0.276,-0.767 0.255,-0.767C0.234,-0.767 0.216,-0.759 0.201,-0.744C0.186,-0.729 0.178,-0.711 0.178,-0.69L0.178,-0.202C0.178,-0.181 0.186,-0.163 0.201,-0.148C0.216,-0.133 0.234,-0.126 0.255,-0.126C0.276,-0.126 0.295,-0.133 0.31,-0.148C0.325,-0.163 0.332,-0.181 0.332,-0.202L0.332,-0.377L0.258,-0.377L0.258,-0.512L0.472,-0.512L0.472,-0.201C0.472,-0.142 0.451,-0.092 0.409,-0.05C0.367,-0.009 0.317,0.011 0.259,0.011Z" style="fill:rgb(0,135,255);fill-rule:nonzero;"/>
            </g>
            <g transform="matrix(12,0,0,12,261.661,143.647)">
                <path d="M0.046,0L0.046,-0.891L0.428,-0.891L0.428,-0.756L0.18,-0.756L0.18,-0.513L0.362,-0.513L0.362,-0.378L0.18,-0.378L0.18,-0.135L0.428,-0.135L0.428,0L0.046,0Z" style="fill:rgb(0,135,255);fill-rule:nonzero;"/>
            </g>
        </g>
        <g transform="matrix(0.818958,0,0,0.855842,-60.8804,-88.7781)">
            <rect x="263.19" y="200.933" width="680.36" height="375.792" style="fill:rgb(0,123,255);fill-opacity:0.07;stroke:rgb(0,135,255);stroke-width:1.19px;"/>
        </g>
        <g id="Back" transform="matrix(1.54878,0,0,1.54878,-235.495,-129.341)">
            <path d="M260.334,136.916L258.81,135.375L259.245,134.94L261.529,137.246L259.245,139.507L258.81,139.072L260.356,137.546L251.912,137.546L251.912,136.916L260.334,136.916Z" style="fill:rgb(0,135,255);fill-rule:nonzero;"/>
        </g>
        <g id="Back1" serif:id="Back" transform="matrix(-2.84507e-16,1.54878,-1.54878,-2.84507e-16,367.191,-306.968)">
            <path d="M260.334,136.916L258.81,135.375L259.245,134.94L261.529,137.246L259.245,139.507L258.81,139.072L260.356,137.546L251.912,137.546L251.912,136.916L260.334,136.916Z" style="fill:rgb(0,135,255);fill-rule:nonzero;"/>
        </g>
        <g transform="matrix(0.730242,0,0,0.733884,20.9219,-19.1926)">
            <rect x="399.411" y="199.552" width="501" height="315" style="fill:rgb(255,27,0);fill-opacity:0.07;stroke:rgb(255,57,0);stroke-width:1.37px;"/>
        </g>
        <g id="Back2" serif:id="Back" transform="matrix(1.54878,0,0,1.54878,-77.4756,-85.6288)">
            <path d="M260.334,136.916L258.81,135.375L259.245,134.94L261.529,137.246L259.245,139.507L258.81,139.072L260.356,137.546L251.912,137.546L251.912,136.916L260.334,136.916Z" style="fill:rgb(255,57,0);fill-rule:nonzero;"/>
        </g>
        <g id="Back3" serif:id="Back" transform="matrix(-2.84507e-16,1.54878,-1.54878,-2.84507e-16,525.211,-263.256)">
            <path d="M260.334,136.916L258.81,135.375L259.245,134.94L261.529,137.246L259.245,139.507L258.81,139.072L260.356,137.546L251.912,137.546L251.912,136.916L260.334,136.916Z" style="fill:rgb(255,57,0);fill-rule:nonzero;"/>
        </g>
        <g transform="matrix(1,0,0,1,78.7503,3.02238)">
            <g transform="matrix(12,0,0,12,242.911,143.647)">
                <path d="M0.49,-0.222C0.491,-0.16 0.475,-0.107 0.442,-0.063C0.42,-0.033 0.389,-0.012 0.349,0.001C0.328,0.007 0.303,0.011 0.275,0.011C0.222,0.011 0.179,-0.002 0.144,-0.028C0.115,-0.05 0.092,-0.079 0.076,-0.115C0.059,-0.152 0.049,-0.194 0.046,-0.241L0.174,-0.251C0.18,-0.199 0.193,-0.161 0.215,-0.138C0.231,-0.12 0.25,-0.112 0.271,-0.113C0.3,-0.114 0.323,-0.128 0.341,-0.156C0.35,-0.17 0.354,-0.19 0.354,-0.215C0.354,-0.252 0.338,-0.289 0.304,-0.325C0.277,-0.351 0.238,-0.388 0.185,-0.438C0.14,-0.482 0.109,-0.52 0.09,-0.554C0.07,-0.593 0.06,-0.634 0.06,-0.679C0.06,-0.761 0.088,-0.822 0.142,-0.864C0.176,-0.889 0.217,-0.901 0.267,-0.901C0.315,-0.901 0.356,-0.891 0.39,-0.869C0.416,-0.853 0.438,-0.83 0.454,-0.8C0.471,-0.77 0.48,-0.736 0.484,-0.697L0.355,-0.673C0.351,-0.71 0.341,-0.738 0.324,-0.759C0.312,-0.773 0.294,-0.781 0.271,-0.781C0.246,-0.781 0.227,-0.77 0.214,-0.748C0.204,-0.73 0.199,-0.709 0.199,-0.683C0.199,-0.642 0.216,-0.6 0.251,-0.558C0.265,-0.542 0.285,-0.523 0.311,-0.501C0.342,-0.475 0.363,-0.457 0.373,-0.447C0.406,-0.414 0.432,-0.381 0.45,-0.349C0.458,-0.334 0.465,-0.32 0.47,-0.307C0.483,-0.275 0.49,-0.247 0.49,-0.222Z" style="fill:rgb(255,57,0);fill-rule:nonzero;"/>
            </g>
            <g transform="matrix(12,0,0,12,249.576,143.647)">
                <path d="M0.18,-0.377L0.18,0L0.046,0L0.046,-0.89L0.18,-0.89L0.18,-0.512L0.342,-0.512L0.342,-0.89L0.477,-0.89L0.477,0L0.342,0L0.342,-0.377L0.18,-0.377Z" style="fill:rgb(255,57,0);fill-rule:nonzero;"/>
            </g>
            <g transform="matrix(12,0,0,12,256.181,143.647)">
                <path d="M0.046,0L0.046,-0.891L0.428,-0.891L0.428,-0.756L0.18,-0.756L0.18,-0.513L0.362,-0.513L0.362,-0.378L0.18,-0.378L0.18,-0.135L0.428,-0.135L0.428,0L0.046,0Z" style="fill:rgb(255,57,0);fill-rule:nonzero;"/>
            </g>
            <g transform="matrix(12,0,0,12,261.874,143.647)">
                <path d="M0.046,0L0.046,-0.891L0.428,-0.891L0.428,-0.756L0.18,-0.756L0.18,-0.513L0.362,-0.513L0.362,-0.378L0.18,-0.378L0.18,-0.135L0.428,-0.135L0.428,0L0.046,0Z" style="fill:rgb(255,57,0);fill-rule:nonzero;"/>
            </g>
            <g transform="matrix(12,0,0,12,267.567,143.647)">
                <path d="M0.189,-0.755L0.046,-0.755L0.046,-0.89L0.465,-0.89L0.465,-0.755L0.323,-0.755L0.323,0L0.189,0L0.189,-0.755Z" style="fill:rgb(255,57,0);fill-rule:nonzero;"/>
            </g>
        </g>
        <g transform="matrix(1,0,0,1,-160.926,-74.5392)">
            <g transform="matrix(12,0,0,12,242.911,143.647)">
                <path d="M0.49,-0.222C0.491,-0.16 0.475,-0.107 0.442,-0.063C0.42,-0.033 0.389,-0.012 0.349,0.001C0.328,0.007 0.303,0.011 0.275,0.011C0.222,0.011 0.179,-0.002 0.144,-0.028C0.115,-0.05 0.092,-0.079 0.076,-0.115C0.059,-0.152 0.049,-0.194 0.046,-0.241L0.174,-0.251C0.18,-0.199 0.193,-0.161 0.215,-0.138C0.231,-0.12 0.25,-0.112 0.271,-0.113C0.3,-0.114 0.323,-0.128 0.341,-0.156C0.35,-0.17 0.354,-0.19 0.354,-0.215C0.354,-0.252 0.338,-0.289 0.304,-0.325C0.277,-0.351 0.238,-0.388 0.185,-0.438C0.14,-0.482 0.109,-0.52 0.09,-0.554C0.07,-0.593 0.06,-0.634 0.06,-0.679C0.06,-0.761 0.088,-0.822 0.142,-0.864C0.176,-0.889 0.217,-0.901 0.267,-0.901C0.315,-0.901 0.356,-0.891 0.39,-0.869C0.416,-0.853 0.438,-0.83 0.454,-0.8C0.471,-0.77 0.48,-0.736 0.484,-0.697L0.355,-0.673C0.351,-0.71 0.341,-0.738 0.324,-0.759C0.312,-0.773 0.294,-0.781 0.271,-0.781C0.246,-0.781 0.227,-0.77 0.214,-0.748C0.204,-0.73 0.199,-0.709 0.199,-0.683C0.199,-0.642 0.216,-0.6 0.251,-0.558C0.265,-0.542 0.285,-0.523 0.311,-0.501C0.342,-0.475 0.363,-0.457 0.373,-0.447C0.406,-0.414 0.432,-0.381 0.45,-0.349C0.458,-0.334 0.465,-0.32 0.47,-0.307C0.483,-0.275 0.49,-0.247 0.49,-0.222Z" style="fill:rgb(255,27,226);fill-rule:nonzero;"/>
            </g>
            <g transform="matrix(12,0,0,12,249.55,143.647)">
                <path d="M0.259,0.011C0.2,0.011 0.15,-0.009 0.108,-0.051C0.067,-0.092 0.046,-0.142 0.046,-0.201L0.046,-0.687C0.046,-0.746 0.067,-0.796 0.109,-0.838C0.15,-0.879 0.201,-0.9 0.259,-0.9C0.318,-0.9 0.369,-0.879 0.41,-0.837C0.451,-0.796 0.472,-0.746 0.472,-0.687L0.472,-0.585L0.332,-0.585L0.332,-0.69C0.332,-0.711 0.325,-0.729 0.31,-0.744C0.295,-0.759 0.276,-0.767 0.255,-0.767C0.234,-0.767 0.216,-0.759 0.201,-0.744C0.186,-0.729 0.178,-0.711 0.178,-0.69L0.178,-0.202C0.178,-0.181 0.186,-0.163 0.201,-0.148C0.216,-0.133 0.234,-0.126 0.255,-0.126C0.276,-0.126 0.295,-0.133 0.31,-0.148C0.325,-0.163 0.332,-0.181 0.332,-0.202L0.332,-0.325L0.472,-0.325L0.472,-0.201C0.472,-0.142 0.451,-0.092 0.409,-0.05C0.367,-0.009 0.317,0.011 0.259,0.011Z" style="fill:rgb(255,27,226);fill-rule:nonzero;"/>
            </g>
            <g transform="matrix(12,0,0,12,255.976,143.647)">
                <path d="M0.258,-0.89C0.333,-0.89 0.388,-0.869 0.423,-0.828C0.453,-0.792 0.469,-0.742 0.469,-0.678L0.469,-0.548C0.469,-0.485 0.445,-0.432 0.397,-0.388L0.496,0L0.351,0L0.27,-0.335L0.258,-0.335L0.18,-0.335L0.18,0L0.046,0L0.046,-0.89L0.258,-0.89ZM0.338,-0.675C0.338,-0.727 0.313,-0.753 0.261,-0.753L0.18,-0.753L0.18,-0.468L0.261,-0.468C0.283,-0.468 0.301,-0.476 0.316,-0.491C0.331,-0.506 0.338,-0.524 0.338,-0.545L0.338,-0.675Z" style="fill:rgb(255,27,226);fill-rule:nonzero;"/>
            </g>
            <g transform="matrix(12,0,0,12,262.76,143.647)">
                <path d="M0.046,0L0.046,-0.891L0.428,-0.891L0.428,-0.756L0.18,-0.756L0.18,-0.513L0.362,-0.513L0.362,-0.378L0.18,-0.378L0.18,-0.135L0.428,-0.135L0.428,0L0.046,0Z" style="fill:rgb(255,27,226);fill-rule:nonzero;"/>
            </g>
            <g transform="matrix(12,0,0,12,268.453,143.647)">
                <path d="M0.046,0L0.046,-0.891L0.428,-0.891L0.428,-0.756L0.18,-0.756L0.18,-0.513L0.362,-0.513L0.362,-0.378L0.18,-0.378L0.18,-0.135L0.428,-0.135L0.428,0L0.046,0Z" style="fill:rgb(255,27,226);fill-rule:nonzero;"/>
            </g>
            <g transform="matrix(12,0,0,12,274.147,143.647)">
                <path d="M0.197,-0.891L0.375,-0.292L0.375,-0.891L0.509,-0.891L0.509,0L0.365,0L0.18,-0.57L0.18,0L0.046,0L0.046,-0.891L0.197,-0.891Z" style="fill:rgb(255,27,226);fill-rule:nonzero;"/>
            </g>
        </g>
        <g id="Back4" serif:id="Back" transform="matrix(1.54878,0,0,1.54878,-315.525,-161.229)">
            <path d="M260.334,136.916L258.81,135.375L259.245,134.94L261.529,137.246L259.245,139.507L258.81,139.072L260.356,137.546L251.912,137.546L251.912,136.916L260.334,136.916Z" style="fill:rgb(255,27,226);fill-rule:nonzero;"/>
        </g>
        <g id="Back5" serif:id="Back" transform="matrix(-2.84507e-16,1.54878,-1.54878,-2.84507e-16,287.161,-338.856)">
            <path d="M260.334,136.916L258.81,135.375L259.245,134.94L261.529,137.246L259.245,139.507L258.81,139.072L260.356,137.546L251.912,137.546L251.912,136.916L260.334,136.916Z" style="fill:rgb(255,27,226);fill-rule:nonzero;"/>
        </g>
        <g transform="matrix(1,0,0,1,-86.8224,-72.2964)">
            <rect x="497.411" y="272.052" width="62.5" height="58.5" style="fill:rgb(23,0,239);fill-opacity:0.27;stroke:rgb(23,0,239);stroke-width:1px;"/>
        </g>
        <g id="Back6" serif:id="Back" transform="matrix(1.54878,0,0,1.54878,20.4318,-12.7745)">
            <path d="M260.334,136.916L258.81,135.375L259.245,134.94L261.529,137.246L259.245,139.507L258.81,139.072L260.356,137.546L251.912,137.546L251.912,136.916L260.334,136.916Z" style="fill:rgb(23,0,239);fill-rule:nonzero;"/>
        </g>
        <g id="Back7" serif:id="Back" transform="matrix(-2.84507e-16,1.54878,-1.54878,-2.84507e-16,623.118,-190.401)">
            <path d="M260.334,136.916L258.81,135.375L259.245,134.94L261.529,137.246L259.245,139.507L258.81,139.072L260.356,137.546L251.912,137.546L251.912,136.916L260.334,136.916Z" style="fill:rgb(23,0,239);fill-rule:nonzero;"/>
        </g>
        <g transform="matrix(1,0,0,1,177.29,74.6079)">
            <g transform="matrix(12,0,0,12,242.911,143.647)">
                <path d="M0.046,0L0.046,-0.891L0.428,-0.891L0.428,-0.756L0.18,-0.756L0.18,-0.513L0.362,-0.513L0.362,-0.378L0.18,-0.378L0.18,-0.135L0.428,-0.135L0.428,0L0.046,0Z" style="fill:rgb(23,0,239);fill-rule:nonzero;"/>
            </g>
            <g transform="matrix(12,0,0,12,248.604,143.647)">
                <path d="M0.197,-0.891L0.375,-0.292L0.375,-0.891L0.509,-0.891L0.509,0L0.365,0L0.18,-0.57L0.18,0L0.046,0L0.046,-0.891L0.197,-0.891Z" style="fill:rgb(23,0,239);fill-rule:nonzero;"/>
            </g>
            <g transform="matrix(12,0,0,12,255.456,143.647)">
                <path d="M0.189,-0.755L0.046,-0.755L0.046,-0.89L0.465,-0.89L0.465,-0.755L0.323,-0.755L0.323,0L0.189,0L0.189,-0.755Z" style="fill:rgb(23,0,239);fill-rule:nonzero;"/>
            </g>
            <g transform="matrix(12,0,0,12,261.78,143.647)">
                <rect x="0.046" y="-0.89" width="0.134" height="0.89" style="fill:rgb(23,0,239);fill-rule:nonzero;"/>
            </g>
            <g transform="matrix(12,0,0,12,264.686,143.647)">
                <path d="M0.189,-0.755L0.046,-0.755L0.046,-0.89L0.465,-0.89L0.465,-0.755L0.323,-0.755L0.323,0L0.189,0L0.189,-0.755Z" style="fill:rgb(23,0,239);fill-rule:nonzero;"/>
            </g>
            <g transform="matrix(12,0,0,12,270.823,143.647)">
                <path d="M0.226,-0.373L0.046,-0.891L0.194,-0.891L0.293,-0.571L0.392,-0.891L0.54,-0.891L0.36,-0.373L0.36,0L0.226,0L0.226,-0.373Z" style="fill:rgb(23,0,239);fill-rule:nonzero;"/>
            </g>
        </g>
        <g transform="matrix(1,0,0,1,-86.8224,-72.2964)">
            <path d="M497.411,199.552L497.411,272.052" style="fill:none;stroke:rgb(255,57,0);stroke-width:1px;stroke-linecap:round;stroke-linejoin:round;stroke-dasharray:5,5,0,0;"/>
        </g>
        <g transform="matrix(1,0,0,1,-86.8224,-72.2964)">
            <path d="M497.411,272.052L399.411,272.052" style="fill:none;stroke:rgb(255,57,0);stroke-width:1px;stroke-linecap:round;stroke-linejoin:round;stroke-dasharray:5,5,0,0;stroke-dashoffset:7;"/>
        </g>
        <g transform="matrix(1,0,0,1,-86.8224,-72.2964)">
            <path d="M399.503,199.197L399.503,155.485" style="fill:none;stroke:rgb(0,135,255);stroke-width:1px;stroke-linecap:round;stroke-linejoin:round;stroke-dasharray:5,5,0,0;"/>
        </g>
        <g transform="matrix(1,0,0,1,-86.8224,-72.2964)">
            <path d="M399.503,199.197L241.484,199.197" style="fill:none;stroke:rgb(0,135,255);stroke-width:1px;stroke-linecap:round;stroke-linejoin:round;stroke-dasharray:5,5,0,0;stroke-dashoffset:7;"/>
        </g>
        <g transform="matrix(1,0,0,1,-127.322,-60.2964)">
            <path d="M281.984,143.485L201.861,143.485" style="fill:none;stroke:rgb(255,27,226);stroke-width:1px;stroke-linecap:round;stroke-linejoin:round;stroke-dasharray:5,5,0,0;stroke-dashoffset:4;"/>
        </g>
    </g>
</svg>
